# xmcd CD database file
#
# Track frame offsets:
#	180
#	11834
#	40222
#	55426
#	72768
#	85207
#	99371
#	123794
#	138129
#	154479
#	163114
#	164546
#	176323
#	204805
#	220042
#	237379
#	249799
#	263888
#	288324
#	302791
#	319073
#
# Disc length: 4370 seconds
#
# Revision: 0
# Processed by: cddbd v1.5.2PL0 Copyright (c) Steve Scherf et al.
# Submitted via: CDex 1.51
#
DISCID=1d111015
DTITLE=Ed Xiques - The Blues Minus You
DYEAR=1996
DGENRE=Blues
TTITLE0=The Twister (Full)
TTITLE1=Empty Street (Full)
TTITLE2=Dealin' (Full)
TTITLE3=Blue Gene (Full)
TTITLE4=Pedal Eyes (Full)
TTITLE5=Blue Greens 'N' Beans (Full)
TTITLE6=Hip Tip (Full)
TTITLE7=Earthy (Full)
TTITLE8=Gospel Truth (Full)
TTITLE9=Wheelin' (Full)
TTITLE10=Tuning Track
TTITLE11=The Twister (Backing)
TTITLE12=Empty Street (Backing)
TTITLE13=Dealin' (Backing)
TTITLE14=Blue Gene (Backing)
TTITLE15=Pedal Eyes (Backing)
TTITLE16=Blue Greens 'N' Beans (Backing)
TTITLE17=Hip Tip (Backing)
TTITLE18=Earthy (Backing)
TTITLE19=Gospel Truth (Backing)
TTITLE20=Wheelin' (Backing)
EXTD=YEAR: 1996
EXTT0=
EXTT1=
EXTT2=
EXTT3=
EXTT4=
EXTT5=
EXTT6=
EXTT7=
EXTT8=
EXTT9=
EXTT10=
EXTT11=
EXTT12=
EXTT13=
EXTT14=
EXTT15=
EXTT16=
EXTT17=
EXTT18=
EXTT19=
EXTT20=
PLAYORDER=
